<!DOCTYPE svg PUBLIC "-//W3C//DTD SVG 20010904//EN" "http://www.w3.org/TR/2001/REC-SVG-20010904/DTD/svg10.dtd">
<svg version="1.0" xmlns="http://www.w3.org/2000/svg" width="100px" height="100px" viewBox="0 0 1000 1000" preserveAspectRatio="xMidYMid meet">
<g id="layer101" fill="#f4f8ff" stroke="none">
 <path d="M0 967 c0 -7 61 -154 135 -327 74 -173 136 -322 138 -330 1 -8 7 -21 14 -28 7 -7 10 -19 7 -27 -4 -8 -2 -15 3 -15 6 0 29 -45 53 -100 l42 -100 98 0 c69 0 99 4 103 13 57 141 372 878 382 893 8 12 11 24 8 28 -10 10 -223 7 -223 -3 0 -5 18 -48 40 -95 l39 -86 -344 0 c-190 0 -345 2 -345 4 0 2 16 38 35 80 19 43 35 84 35 92 0 11 -21 14 -110 14 -83 0 -110 -3 -110 -13z m647 -249 c-83 -206 -152 -368 -157 -368 -11 0 -104 244 -94 247 5 2 61 33 124 68 118 67 136 74 127 53z"/>
 </g>

</svg>
