<svg xmlns="http://www.w3.org/2000/svg" xmlns:xlink="http://www.w3.org/1999/xlink" version="1.1" x="0px" y="0px" viewBox="0 0 24 30" enable-background="new 0 0 24 24" xml:space="preserve"><g><path fill="#AC1E2D" d="M23.722,18.47c-0.56-0.358-0.998-0.332-1.513,0.093l-1.149,0.959c-0.523,0.434-1.058,0.434-1.581-0.002l-1.128-0.943   c-0.566-0.475-1.097-0.475-1.669,0l-1.146,0.96c-0.155,0.127-0.314,0.216-0.474,0.265c-0.017,0.003-0.034,0-0.051,0.005   c-0.35,0.104-0.703,0.018-1.043-0.258c-0.289-0.235-0.573-0.475-0.857-0.716l-0.303-0.255c-0.568-0.477-1.099-0.478-1.671,0   l-1.146,0.958c-0.297,0.244-0.599,0.345-0.902,0.305c-0.216-0.03-0.433-0.133-0.644-0.306c-0.213-0.174-0.423-0.352-0.633-0.529   l-0.514-0.43c-0.571-0.473-1.103-0.473-1.668,0.002l-1.164,0.975c-0.472,0.391-1.035,0.389-1.509-0.002l-1.203-1.007   c-0.485-0.401-0.953-0.429-1.478-0.09c-0.186,0.121-0.238,0.368-0.118,0.553c0.122,0.187,0.368,0.237,0.554,0.119   c0.229-0.149,0.319-0.142,0.532,0.034l1.204,1.007c0.385,0.318,0.824,0.477,1.265,0.477c0.439,0,0.88-0.159,1.263-0.476   l1.168-0.978c0.271-0.229,0.367-0.228,0.645,0l0.508,0.426c0.213,0.179,0.426,0.359,0.642,0.536   c0.327,0.267,0.677,0.428,1.039,0.479c0.081,0.011,0.162,0.017,0.243,0.017c0.443,0,0.881-0.169,1.278-0.497l1.149-0.96   c0.271-0.224,0.379-0.226,0.644-0.002l0.302,0.254c0.288,0.244,0.577,0.488,0.87,0.726c0.527,0.427,1.135,0.569,1.726,0.412   c0.029-0.002,0.058,0.001,0.088-0.008c0.269-0.08,0.527-0.221,0.769-0.42l1.147-0.961c0.277-0.23,0.374-0.229,0.646-0.002   l1.129,0.944c0.415,0.344,0.859,0.517,1.305,0.517c0.443,0,0.887-0.171,1.3-0.514l1.147-0.958c0.242-0.201,0.307-0.205,0.571-0.036   c0.184,0.117,0.434,0.065,0.553-0.121S23.908,18.589,23.722,18.47z"/><rect fill="#AC1E2D" x="16.071" y="10.513" width="1.301" height="0.783"/><rect fill="#AC1E2D" x="18.008" y="10.513" width="1.301" height="0.783"/><rect fill="#AC1E2D" x="19.946" y="10.513" width="1.301" height="0.783"/><path fill="#AC1E2D" d="M23.825,9.014c-0.161-0.28-0.463-0.455-0.785-0.455h-0.306V4.748c0-0.772-0.629-1.4-1.4-1.4h-0.356   c-0.771,0-1.4,0.628-1.4,1.4V8.56h-0.438V5.748c0-0.772-0.629-1.4-1.4-1.4H17.38c-0.771,0-1.4,0.628-1.4,1.4V8.56h-0.236   c-0.134,0-0.259,0.067-0.333,0.178l-1.368,2.052h-1.576v-2.03c0-0.221-0.18-0.4-0.4-0.4h-1.233v-2.03c0-0.221-0.18-0.4-0.4-0.4H9.2   V3.898c0-0.221-0.18-0.4-0.4-0.4H5.533c-0.221,0-0.4,0.179-0.4,0.4v2.031H3.9c-0.221,0-0.4,0.179-0.4,0.4v2.03H2.266   c-0.221,0-0.4,0.179-0.4,0.4v2.03H1.763c-0.521,0-1.006,0.232-1.332,0.639c-0.325,0.407-0.447,0.931-0.335,1.439l0.649,2.92   c-0.14,0.037-0.283,0.096-0.43,0.192c-0.186,0.12-0.238,0.368-0.118,0.553c0.121,0.186,0.369,0.238,0.554,0.119   c0.229-0.149,0.318-0.142,0.532,0.034l1.204,1.007c0.385,0.318,0.825,0.477,1.265,0.477c0.44,0,0.88-0.158,1.264-0.475l1.169-0.979   c0.269-0.226,0.366-0.23,0.643,0.001l0.52,0.435c0.209,0.177,0.419,0.353,0.63,0.526c0.326,0.268,0.677,0.43,1.041,0.48   c0.001,0,0.002,0,0.003,0c0.08,0.011,0.16,0.017,0.239,0.017c0.443,0,0.881-0.169,1.278-0.496l1.149-0.961   c0.271-0.223,0.377-0.225,0.644-0.001l0.329,0.277c0.279,0.236,0.559,0.472,0.843,0.702c0.542,0.44,1.173,0.582,1.773,0.405   c0.269-0.08,0.527-0.221,0.769-0.42l1.148-0.962c0.053-0.045,0.105-0.082,0.154-0.112c0.001,0,0.001,0,0.001,0   c0.117-0.068,0.209-0.124,0.489,0.11l1.129,0.945c0.415,0.344,0.86,0.517,1.305,0.517c0.443,0,0.887-0.171,1.3-0.514l1.147-0.958   c0.242-0.201,0.307-0.205,0.571-0.036c0.184,0.117,0.434,0.065,0.553-0.121s0.064-0.434-0.121-0.553   c-0.56-0.358-0.998-0.332-1.513,0.093l-1.149,0.959c-0.478,0.397-0.964,0.412-1.444,0.083l4.202-7.205   C23.985,9.646,23.987,9.298,23.825,9.014z M20.377,4.748c0-0.331,0.269-0.6,0.6-0.6h0.356c0.331,0,0.6,0.269,0.6,0.6V8.56h-1.556   V4.748z M16.781,5.748c0-0.331,0.269-0.6,0.6-0.6h0.357c0.331,0,0.6,0.269,0.6,0.6V8.56h-1.557V5.748z M11.665,10.79H9.2v-1.63   h1.232h1.233V10.79z M5.933,10.79v-1.63h1.233h1.232v1.63H5.933z M10.032,8.359H8.799H7.567v-1.63h1.232h1.232V8.359z M5.933,4.298   h2.466v1.631H7.166H5.933V4.298z M4.3,6.729h1.232h1.233v1.63H5.533H4.3V6.729z M2.666,9.159H3.9h1.232v1.63H2.666V9.159z    M23.129,9.518l-4.147,7.111l-0.631-0.528c-0.177-0.148-0.71-0.595-1.407-0.187c-0.002,0.001-0.002,0.002-0.004,0.003   c-0.084,0.049-0.169,0.11-0.258,0.183l-1.146,0.961c-0.158,0.13-0.321,0.221-0.485,0.27c-0.351,0.105-0.703,0.017-1.043-0.258   c-0.279-0.227-0.555-0.459-0.83-0.692l-0.331-0.279c-0.56-0.47-1.106-0.471-1.67,0l-1.146,0.958   c-0.297,0.245-0.598,0.346-0.902,0.305c0,0-0.001,0-0.001,0c-0.216-0.029-0.432-0.132-0.643-0.306   c-0.209-0.171-0.416-0.345-0.622-0.519L7.337,16.1c-0.571-0.473-1.102-0.473-1.667,0.003l-1.164,0.975   c-0.47,0.389-1.035,0.39-1.509-0.001l-1.204-1.007c-0.065-0.054-0.129-0.083-0.193-0.123l-0.723-3.252   c-0.061-0.27,0.005-0.549,0.178-0.765c0.174-0.216,0.432-0.339,0.708-0.339h0.503h3.267h3.267h3.267h2.19   c0.134,0,0.259-0.067,0.333-0.178l1.368-2.052h0.423h2.357h1.239h2.356h0.706c0.038,0,0.072,0.021,0.092,0.053   C23.15,9.445,23.15,9.484,23.129,9.518z"/><circle fill="#AC1E2D" cx="3.589" cy="13.136" r="0.67"/><circle fill="#AC1E2D" cx="5.934" cy="13.136" r="0.67"/><circle fill="#AC1E2D" cx="8.278" cy="13.136" r="0.67"/><circle fill="#AC1E2D" cx="10.623" cy="13.136" r="0.67"/></g></svg>
