<svg xmlns="http://www.w3.org/2000/svg" xmlns:xlink="http://www.w3.org/1999/xlink" version="1.0" x="0px" y="0px" viewBox="0 0 100 125" enable-background="new 0 0 100 100" xml:space="preserve"><g><path fill="#AC1E2D" d="M14.75,70.908c1.207,0.311,2.496,0.469,3.831,0.469c2.656,0,5.149-0.625,7.208-1.806   c1.478-0.843,2.604-1.919,3.346-3.126c0.741,1.207,1.867,2.282,3.343,3.124c2.062,1.183,4.556,1.808,7.211,1.808   c1.978,0,3.869-0.349,5.563-1.016c0.002-0.001,0.003-0.002,0.005-0.002c0.574-0.227,1.126-0.489,1.651-0.788   c1.477-0.843,2.604-1.919,3.345-3.126c0.741,1.207,1.868,2.282,3.344,3.124c2.031,1.166,4.592,1.808,7.21,1.808   c2.452,0,4.84-0.565,6.79-1.585c0.032-0.017,0.066-0.031,0.097-0.052c0.107-0.057,0.219-0.109,0.323-0.17   c1.478-0.842,2.604-1.918,3.345-3.124c0.741,1.206,1.869,2.282,3.347,3.124c2.07,1.182,4.566,1.807,7.218,1.807   c1.134,0,2.239-0.115,3.284-0.342c0.54-0.117,0.883-0.65,0.766-1.189c-0.117-0.541-0.653-0.884-1.189-0.766   c-0.906,0.197-1.869,0.297-2.86,0.297c-2.271,0-4.482-0.548-6.228-1.544c-2.121-1.208-3.337-2.95-3.337-4.777   c0-0.511-0.389-0.916-0.883-0.977c1.41-3.535,2.288-8.675-2.038-16.07c-0.012-0.019-0.03-0.03-0.043-0.048   c-0.013-0.019-0.016-0.042-0.029-0.06c-1.396-1.803-0.618-3.696,0.545-5.984c0.002-0.004,0.001-0.008,0.003-0.012   s0.006-0.007,0.008-0.011l7.991-16.759c0,0,0.001-0.001,0.001-0.001s0-0.001,0-0.001l0.009-0.018   c0.026-0.054,0.026-0.112,0.042-0.168c0.02-0.069,0.049-0.137,0.053-0.207c0.003-0.065-0.016-0.127-0.024-0.191   c-0.01-0.063-0.008-0.127-0.028-0.187c-0.021-0.063-0.063-0.116-0.098-0.174c-0.031-0.053-0.053-0.11-0.093-0.157   c-0.045-0.052-0.108-0.087-0.165-0.129c-0.048-0.036-0.084-0.082-0.14-0.11l-8.616-4.334l0,0l0,0l-0.001,0   c-0.492-0.249-1.094-0.05-1.343,0.444c0,0,0,0.001-0.001,0.002l-4.181,8.295c0,0.001-0.001,0.001-0.001,0.002s0,0.001-0.001,0.002   l-4.181,8.296c-0.002,0.003-0.001,0.007-0.003,0.011c-0.002,0.004-0.007,0.007-0.009,0.012c-1.097,2.32-2.117,4.095-4.396,4.095   c-0.022,0-0.041,0.011-0.063,0.013c-0.022,0.001-0.044-0.007-0.066-0.004c-10.781,1.406-13.571,7.218-15.238,10.69   c-0.196,0.409-0.38,0.793-0.564,1.142c-0.001,0.002-0.001,0.005-0.002,0.008s-0.004,0.004-0.006,0.007l-7.713,15.304   c-0.616-0.842-0.953-1.769-0.953-2.721c0-0.553-0.448-1-1-1s-1,0.447-1,1c0,1.827-1.216,3.569-3.338,4.779   c-1.734,0.994-3.941,1.542-6.216,1.542c-1.166,0-2.287-0.137-3.332-0.406c-0.535-0.137-1.08,0.184-1.218,0.719   S14.215,70.77,14.75,70.908z M51.255,63.056c0-0.553-0.448-1-1-1s-1,0.447-1,1c0,1.412-0.733,2.771-2.043,3.874l5.921-12.893   c0.082,0.114,0.163,0.228,0.257,0.342c0.922,1.116,2.332,2.145,3.97,2.896c1.579,0.726,3.228,1.125,4.642,1.125   c0.198,0,0.389-0.011,0.574-0.025l-4.893,10.639c-1.121-0.262-2.174-0.653-3.092-1.18C52.471,66.625,51.255,64.883,51.255,63.056z    M63.748,55.816c-0.162,0.354-0.849,0.583-1.747,0.583c-1.133,0-2.484-0.334-3.807-0.942c-1.351-0.619-2.54-1.477-3.263-2.352   c-0.54-0.652-0.777-1.268-0.63-1.614l0.005-0.011c0.001-0.003,0.001-0.006,0.002-0.009c0.167-0.352,0.849-0.578,1.743-0.578   c1.132,0,2.484,0.334,3.807,0.941C62.696,53.138,64.079,55.095,63.748,55.816z M68.851,19.692l6.85,3.446l-3.139,6.584   l-6.994-3.518L68.851,19.692z M54.856,40.609c3.64-0.066,5.113-3.169,6.09-5.233c0,0,0-0.001,0-0.001l3.722-7.383l7.032,3.537   l-3.568,7.482v0c-1.035,2.036-2.586,5.102-0.408,8.021c4.933,8.441,2.549,13.199,0.807,16.674c-0.215,0.428-0.416,0.83-0.589,1.209   c-0.001,0.001,0,0.002-0.001,0.004l-1.529,3.21c-1.623,0.794-3.572,1.247-5.603,1.247c-0.358,0-0.71-0.037-1.063-0.063   l5.823-12.663c0.002-0.005,0.001-0.011,0.004-0.016c0.932-2.069-1.162-4.91-4.88-6.617c-1.578-0.725-3.227-1.124-4.641-1.124   c-1.782,0-3.049,0.622-3.566,1.75c-0.006,0.013-0.009,0.028-0.015,0.042l-8.218,17.897c-1.399,0.51-2.961,0.795-4.563,0.795   c-2.274,0-4.482-0.548-6.218-1.544c-0.318-0.182-0.609-0.379-0.886-0.583l8.002-15.878c0-0.001,0-0.002,0-0.003   c0.191-0.364,0.384-0.763,0.589-1.189C42.859,46.676,45.163,41.878,54.856,40.609z"/><path fill="#AC1E2D" d="M84.788,80.354c-0.906,0.197-1.869,0.297-2.86,0.297c-5.273,0-9.564-2.832-9.564-6.313c0-0.553-0.447-1-1-1   s-1,0.447-1,1c0,3.48-4.286,6.313-9.555,6.313c-5.268,0-9.554-2.832-9.554-6.313c0-0.553-0.448-1-1-1s-1,0.447-1,1   c0,3.48-4.291,6.313-9.564,6.313c-5.269,0-9.555-2.832-9.555-6.313c0-0.553-0.448-1-1-1s-1,0.447-1,1   c0,3.48-4.286,6.313-9.554,6.313c-1.167,0-2.288-0.137-3.331-0.406c-0.536-0.145-1.081,0.183-1.219,0.717   c-0.138,0.535,0.183,1.081,0.718,1.219c1.206,0.313,2.496,0.471,3.832,0.471c4.704,0,8.753-2.036,10.554-4.945   c1.801,2.909,5.851,4.945,10.555,4.945c4.708,0,8.762-2.036,10.564-4.945c1.801,2.909,5.85,4.945,10.555,4.945   s8.755-2.036,10.555-4.945c1.803,2.909,5.855,4.945,10.564,4.945c1.134,0,2.239-0.115,3.284-0.342   c0.54-0.117,0.883-0.65,0.766-1.189C85.86,80.579,85.324,80.234,84.788,80.354z"/></g></svg>
