<svg xmlns="http://www.w3.org/2000/svg" xmlns:xlink="http://www.w3.org/1999/xlink" version="1.1" x="0px" y="0px" viewBox="0 0 100 125" enable-background="new 0 0 100 100" xml:space="preserve"><path fill="#AC1E2D" d="M66.074,76.489c-1.311-12.006-11.465-18.618-28.592-18.618c-0.105,0-0.211,0.003-0.316,0.007l-0.032,0.003l-0.121-0.003  c-0.105-0.004-0.209-0.007-0.317-0.007c-17.128,0-27.281,6.612-28.59,18.617c-0.03,0.281-0.047,1.025-0.082,3.272L8,81.173  c-0.001,0.049,0.009,0.095,0.012,0.144c0.004,0.067,0.006,0.136,0.017,0.203c0.011,0.068,0.028,0.133,0.046,0.198  c0.016,0.06,0.03,0.118,0.051,0.177c0.023,0.063,0.053,0.124,0.083,0.186c0.027,0.056,0.053,0.111,0.086,0.165  c0.034,0.058,0.075,0.11,0.116,0.164c0.037,0.05,0.073,0.1,0.115,0.146c0.05,0.054,0.105,0.102,0.16,0.15  c0.033,0.029,0.061,0.063,0.097,0.091c0.022,0.017,0.045,0.032,0.067,0.05c0.001,0,0.002,0.001,0.002,0.002  C16.795,88.92,26.292,92,37.085,92h0.005c10.556,0,20.341-3.18,28.296-9.194c0.04-0.03,0.07-0.066,0.106-0.099  c0.053-0.047,0.106-0.092,0.154-0.144c0.045-0.049,0.082-0.101,0.121-0.152s0.079-0.102,0.113-0.157  c0.033-0.056,0.061-0.113,0.089-0.171c0.029-0.06,0.059-0.117,0.081-0.179c0.022-0.061,0.037-0.121,0.054-0.183  c0.017-0.063,0.035-0.126,0.046-0.192c0.011-0.07,0.014-0.141,0.018-0.212c0.002-0.048,0.013-0.093,0.012-0.142l-0.019-1.1  C66.123,77.646,66.105,76.789,66.074,76.489z M37.09,88h-0.005c-9.562,0-17.987-2.625-25.067-7.79l0.006-0.387  c0.017-1.059,0.042-2.66,0.059-2.9c1.356-12.44,14.133-15.052,24.613-15.052l0.439,0.009l0.348-0.009  c10.479,0,23.257,2.611,24.611,15.014c0.021,0.293,0.051,2.146,0.068,3.255l0.001,0.061C55.056,85.302,46.412,88,37.09,88z   M37.09,54.524c8.77,0,15.904-8.573,15.904-19.11c0-9.994-6.54-16.974-15.904-16.974c-9.363,0-15.902,6.979-15.902,16.974  C21.188,45.951,28.321,54.524,37.09,54.524z M37.09,22.44c7.12,0,11.904,5.214,11.904,12.974c0,8.332-5.34,15.11-11.904,15.11  c-6.563,0-11.902-6.778-11.902-15.11C25.188,27.654,29.971,22.44,37.09,22.44z M94.012,26.5h-12v-12c0-1.104-0.896-2-2-2  s-2,0.896-2,2v12h-12c-1.104,0-2,0.896-2,2s0.896,2,2,2h12v12c0,1.104,0.896,2,2,2s2-0.896,2-2v-12h12c1.104,0,2-0.896,2-2  S95.116,26.5,94.012,26.5z"/></svg>
